<svg xmlns="http://www.w3.org/2000/svg" width="90" height="90" viewBox="0 0 90 90">
  <defs>
    <style>
      .cls-1 {
        fill: #36f;
      }

      .cls-2 {
        fill: #fff;
      }
    </style>
  </defs>
  <g id="组_1009" data-name="组 1009" transform="translate(-1232 -1557)">
    <rect id="矩形_26" data-name="矩形 26" class="cls-1" width="90" height="90" rx="10" transform="translate(1232 1557)"/>
    <g id="组_142" data-name="组 142" transform="translate(1055.807 1352.356)">
      <path id="路径_163" data-name="路径 163" class="cls-2" d="M239.648,231H203.3a1.3,1.3,0,0,0-1.3,1.3v27.262a1.3,1.3,0,0,0,1.3,1.3h16.227v2.6h-3.895a1.947,1.947,0,0,0,0,3.894h11.684a1.947,1.947,0,1,0,0-3.894H223.42v-2.6h16.228a1.3,1.3,0,0,0,1.3-1.3V232.3a1.3,1.3,0,0,0-1.3-1.3Zm-2.6,25.964H205.895v-22.07h31.157Zm0,0" transform="translate(0 0)"/>
      <path id="路径_164" data-name="路径 164" class="cls-2" d="M328.157,361.412a1.947,1.947,0,0,0,2.635-.8l4.182-7.841,6,4a1.947,1.947,0,0,0,2.567-.362l7.14-8.438a1.947,1.947,0,0,0-2.973-2.516l-6.018,7.113-6.344-4.23a1.948,1.948,0,0,0-2.8.7l-5.193,9.736a1.948,1.948,0,0,0,.8,2.635Zm0,0" transform="translate(-117.986 -107.274)"/>
    </g>
  </g>
</svg>
