<svg xmlns="http://www.w3.org/2000/svg" xmlns:xlink="http://www.w3.org/1999/xlink" width="90" height="90" viewBox="0 0 90 90">
  <defs>
    <style>
      .cls-1 {
        fill: #fff;
      }

      .cls-2 {
        fill: #36f;
      }

      .cls-3 {
        clip-path: url(#clip-path);
      }
    </style>
    <clipPath id="clip-path">
      <rect id="矩形_98" data-name="矩形 98" class="cls-1" width="43.432" height="42.725"/>
    </clipPath>
  </defs>
  <g id="组_1007" data-name="组 1007" transform="translate(-756 -1557)">
    <rect id="矩形_27" data-name="矩形 27" class="cls-2" width="90" height="90" rx="10" transform="translate(756 1557)"/>
    <g id="组_141" data-name="组 141" transform="translate(217.204 1434.078)">
      <g id="组_140" data-name="组 140" transform="translate(562 149)">
        <g id="组_139" data-name="组 139" class="cls-3" transform="translate(0 0)">
          <path id="路径_162" data-name="路径 162" class="cls-1" d="M604.559,154.464l-8.734-5.019a1.524,1.524,0,0,0-1.5,0l-8.728,5.017a1.51,1.51,0,0,0-.752,1.311v.423l-.482-.276a1.524,1.524,0,0,0-1.506,0l-.486.282v-.429a1.521,1.521,0,0,0-.758-1.311l-8.734-5.017a1.524,1.524,0,0,0-1.5,0l-8.734,5.017a1.5,1.5,0,0,0-.758,1.311V165.85a1.515,1.515,0,0,0,.758,1.311l8.73,5.019a1.51,1.51,0,0,0,1.5,0l.488-.28v.427a1.521,1.521,0,0,0,.758,1.311l.309.177-.309.175a1.514,1.514,0,0,0-.758,1.311v10.079a1.521,1.521,0,0,0,.758,1.309l8.73,5.019a1.524,1.524,0,0,0,1.5,0l8.73-5.019a1.514,1.514,0,0,0,.758-1.311V175.3a1.519,1.519,0,0,0-.758-1.309l-.309-.177.309-.177a1.514,1.514,0,0,0,.758-1.309v-.425l.482.276a1.524,1.524,0,0,0,1.5,0l8.732-5.023a1.518,1.518,0,0,0,.762-1.311V155.77a1.508,1.508,0,0,0-.762-1.309Zm-32.437,14.192-6.81-3.912v-7.86l6.812-3.916,6.81,3.916v1.29l-4.816,2.768a1.514,1.514,0,0,0-.756,1.309v5.7l-1.24.711Zm6.81-7.954v4.044l-3.381,1.945v-4.044Zm11.479,15.712v7.86l-6.81,3.914-6.812-3.914v-7.86l1.077-.618,4.983,2.861a1.524,1.524,0,0,0,1.5,0l4.983-2.861,1.077.618Zm-10.346-1.886L583.6,172.5l3.536,2.032-3.534,2.034-3.536-2.032Zm11.583-2.591-1.071.62-6.226-3.576a1.525,1.525,0,0,0-1.5,0l-6.226,3.576-1.071-.62v-1.294l6.054-3.481a1.514,1.514,0,0,0,.758-1.311v-7.121l1.242-.713,1.233.709v7.129a1.52,1.52,0,0,0,.752,1.311l6.06,3.481Zm0-5.247-3.381-1.951V160.7l3.381,1.947v4.048Zm10.242-1.951-6.816,3.916-1.234-.7v-5.7a1.513,1.513,0,0,0-.752-1.309l-4.82-2.772v-1.286l6.81-3.916,6.812,3.916v7.856Zm0,0" transform="translate(-561.886 -149.233)"/>
        </g>
      </g>
    </g>
  </g>
</svg>
