<svg xmlns="http://www.w3.org/2000/svg" xmlns:xlink="http://www.w3.org/1999/xlink" width="90" height="90" viewBox="0 0 90 90">
  <defs>
    <style>
      .cls-1 {
        fill: #fff;
      }

      .cls-2 {
        fill: #36f;
      }

      .cls-3 {
        clip-path: url(#clip-path);
      }
    </style>
    <clipPath id="clip-path">
      <rect id="矩形_97" data-name="矩形 97" class="cls-1" width="34.089" height="37.106"/>
    </clipPath>
  </defs>
  <g id="组_1005" data-name="组 1005" transform="translate(-279 -1557)">
    <rect id="矩形_28" data-name="矩形 28" class="cls-2" width="90" height="90" rx="10" transform="translate(279 1557)"/>
    <g id="组_138" data-name="组 138" transform="translate(-313.401 1412.44)">
      <g id="组_137" data-name="组 137" transform="translate(620 171)">
        <g id="组_136" data-name="组 136" class="cls-3" transform="translate(0 0)">
          <path id="路径_158" data-name="路径 158" class="cls-1" d="M665.357,223.1H640.221a3.634,3.634,0,0,1-3.622-3.622V191.344a3.634,3.634,0,0,1,3.622-3.622h25.136a3.634,3.634,0,0,1,3.622,3.622v28.135a3.634,3.634,0,0,1-3.622,3.622Zm-25.136-32.74a.973.973,0,0,0-.983.983v28.135a.973.973,0,0,0,.983.983h25.136a.973.973,0,0,0,.983-.983V191.344a.973.973,0,0,0-.983-.983Zm0,0" transform="translate(-635.766 -186.882)"/>
          <path id="路径_159" data-name="路径 159" class="cls-1" d="M649.478,208.06H624.341a4.453,4.453,0,0,1-4.461-4.461V175.464A4.468,4.468,0,0,1,624.341,171h25.136a4.453,4.453,0,0,1,4.461,4.461V203.6a4.468,4.468,0,0,1-4.461,4.461Zm-25.136-35.378a2.784,2.784,0,0,0-2.782,2.782V203.6a2.784,2.784,0,0,0,2.782,2.782h25.136a2.784,2.784,0,0,0,2.782-2.782V175.464a2.784,2.784,0,0,0-2.782-2.782Zm25.136,32.74H624.341a1.822,1.822,0,0,1-1.823-1.823V175.464a1.822,1.822,0,0,1,1.823-1.823h25.136a1.822,1.822,0,0,1,1.823,1.823V203.6a1.822,1.822,0,0,1-1.823,1.823Zm-25.136-30.1a.155.155,0,0,0-.144.144V203.6a.155.155,0,0,0,.144.144h25.136a.155.155,0,0,0,.144-.144V175.464a.155.155,0,0,0-.144-.144Zm0,0" transform="translate(-619.886 -171.003)"/>
        </g>
      </g>
      <path id="路径_160" data-name="路径 160" class="cls-1" d="M792.259,393.044h-3.934a.635.635,0,0,1-.624-.624v-3.934a.635.635,0,0,1,.624-.624h3.934a.635.635,0,0,1,.623.624v3.934a.635.635,0,0,1-.623.624Zm0,7.459h-3.934a.635.635,0,0,1-.624-.624v-3.933a.635.635,0,0,1,.624-.624h3.934a.635.635,0,0,1,.623.624v3.933a.635.635,0,0,1-.623.624Zm0,7.459h-3.934a.635.635,0,0,1-.624-.624v-3.934a.635.635,0,0,1,.624-.624h3.934a.635.635,0,0,1,.623.624v3.934a.619.619,0,0,1-.623.624Zm-14.343-4.533v3.934a.635.635,0,0,1-.624.624h-3.933a.635.635,0,0,1-.624-.624V403.43a.635.635,0,0,1,.624-.624h3.933a.635.635,0,0,1,.624.624Zm7.483,0v3.934a.635.635,0,0,1-.623.624h-3.958a.635.635,0,0,1-.624-.624V403.43a.635.635,0,0,1,.624-.624h3.934a.656.656,0,0,1,.648.624Zm0,0" transform="translate(-145.066 -205.974)"/>
      <path id="路径_161" data-name="路径 161" class="cls-1" d="M1075.5,686.077v3.933a.635.635,0,0,1-.624.624h-3.934a.635.635,0,0,1-.624-.624v-3.933a.635.635,0,0,1,.624-.624h3.934a.652.652,0,0,1,.624.624Zm0,0" transform="translate(-427.709 -488.621)"/>
    </g>
  </g>
</svg>
