<svg xmlns="http://www.w3.org/2000/svg" xmlns:xlink="http://www.w3.org/1999/xlink" width="90" height="90" viewBox="0 0 90 90">
  <defs>
    <style>
      .cls-1 {
        fill: #fff;
      }

      .cls-2 {
        fill: #36f;
      }

      .cls-3 {
        clip-path: url(#clip-path);
      }
    </style>
    <clipPath id="clip-path">
      <rect id="矩形_95" data-name="矩形 95" class="cls-1" width="43.392" height="43.455"/>
    </clipPath>
  </defs>
  <g id="组_1006" data-name="组 1006" transform="translate(-756 -1322)">
    <rect id="矩形_24" data-name="矩形 24" class="cls-2" width="90" height="90" rx="10" transform="translate(756 1322)"/>
    <g id="组_132" data-name="组 132" transform="translate(165.244 1151.712)">
      <g id="组_131" data-name="组 131" transform="translate(614 194)">
        <g id="组_130" data-name="组 130" class="cls-3" transform="translate(0 0)">
          <path id="路径_155" data-name="路径 155" class="cls-1" d="M653.132,229.349a4.479,4.479,0,0,0-3.494,1.747l-3.6-3.083a13.055,13.055,0,0,0-9.967-20.962v-3.9a4.316,4.316,0,1,0-.822,0v3.9a13.055,13.055,0,0,0-9.967,20.962l-3.6,2.98a4.479,4.479,0,0,0-3.494-1.747,4.316,4.316,0,1,0,4.316,4.316,4.028,4.028,0,0,0-.411-1.85l3.7-3.083a12.993,12.993,0,0,0,19.524,0l3.7,3.083a4.908,4.908,0,0,0-.411,1.85,4.316,4.316,0,0,0,8.632,0,3.9,3.9,0,0,0-4.11-4.213Zm-17.365-1.027a8.052,8.052,0,0,1-7.912-6.679h-2.363l3.288-4.007,1.953,2.26,1.644,1.85H629.7a6.275,6.275,0,1,0,6.063-7.912,5.99,5.99,0,0,0-4.932,2.466,2.365,2.365,0,0,1-.925-.308,2.037,2.037,0,0,1-.308-1.13,7.848,7.848,0,0,1,6.268-2.98,8.157,8.157,0,0,1,8.118,8.22,8.312,8.312,0,0,1-8.22,8.221Zm0,0" transform="translate(-613.888 -194.483)"/>
        </g>
      </g>
    </g>
  </g>
</svg>
