<svg xmlns="http://www.w3.org/2000/svg" xmlns:xlink="http://www.w3.org/1999/xlink" width="90" height="90" viewBox="0 0 90 90">
  <defs>
    <style>
      .cls-1 {
        fill: #fff;
      }

      .cls-2 {
        fill: #36f;
      }

      .cls-3 {
        clip-path: url(#clip-path);
      }
    </style>
    <clipPath id="clip-path">
      <rect id="矩形_94" data-name="矩形 94" class="cls-1" width="35.683" height="35.742"/>
    </clipPath>
  </defs>
  <g id="组_1004" data-name="组 1004" transform="translate(-279 -1322)">
    <rect id="矩形_23" data-name="矩形 23" class="cls-2" width="90" height="90" rx="10" transform="translate(279 1322)"/>
    <g id="组_129" data-name="组 129" transform="translate(-337.401 1124.089)">
      <g id="组_128" data-name="组 128" transform="translate(644 225)">
        <g id="组_127" data-name="组 127" class="cls-3" transform="translate(0 0)">
          <path id="路径_153" data-name="路径 153" class="cls-1" d="M652.79,225.806h17.821v4.277H652.79Zm-7.128,6.772H677.74v4.277H645.662Zm33.859,11.049V239.35H643.88v22.1h35.642Zm-31.365,13.544V243.627h27.088v13.544Zm0,0" transform="translate(-643.887 -225.76)"/>
        </g>
      </g>
      <path id="路径_154" data-name="路径 154" class="cls-1" d="M810.256,573.021l-5.4,5.346-4.526-4.491-1.746,1.782,6.273,6.2,5.418-5.346L815,581.023l1.711-1.818Zm0,0" transform="translate(-145.84 -328.337)"/>
    </g>
  </g>
</svg>
