<svg xmlns="http://www.w3.org/2000/svg" xmlns:xlink="http://www.w3.org/1999/xlink" width="90" height="90" viewBox="0 0 90 90">
  <defs>
    <style>
      .cls-1 {
        fill: #fff;
      }

      .cls-2 {
        fill: #36f;
      }

      .cls-3 {
        clip-path: url(#clip-path);
      }
    </style>
    <clipPath id="clip-path">
      <rect id="矩形_96" data-name="矩形 96" class="cls-1" width="38.247" height="41.708"/>
    </clipPath>
  </defs>
  <g id="组_1008" data-name="组 1008" transform="translate(-1232 -1322)">
    <rect id="矩形_25" data-name="矩形 25" class="cls-2" width="90" height="90" rx="10" transform="translate(1232 1322)"/>
    <g id="组_135" data-name="组 135" transform="translate(608.316 1143.586)">
      <g id="组_134" data-name="组 134" transform="translate(650 203)">
        <g id="组_133" data-name="组 133" class="cls-3" transform="translate(0 0)">
          <path id="路径_156" data-name="路径 156" class="cls-1" d="M995.56,596.185v-3.071h-2.036a6.986,6.986,0,0,0-.956-2.306l1.44-1.44-2.171-2.166-1.435,1.435a7.1,7.1,0,0,0-2.306-.951v-2.036h-3.071v2.036a7.036,7.036,0,0,0-2.306.956l-1.434-1.44-2.172,2.171,1.44,1.435a6.982,6.982,0,0,0-.956,2.306H977.56v3.071H979.6a7.038,7.038,0,0,0,.956,2.306l-1.44,1.435,2.172,2.171,1.434-1.44a6.989,6.989,0,0,0,2.306.956v2.036H988.1v-2.036a7.036,7.036,0,0,0,2.306-.956l1.435,1.44,2.171-2.171-1.44-1.435a6.985,6.985,0,0,0,.956-2.306Zm-4.314-1.536a4.686,4.686,0,1,1-4.686-4.686,4.686,4.686,0,0,1,4.686,4.686Zm0,0" transform="translate(-957.317 -562.001)"/>
          <path id="路径_157" data-name="路径 157" class="cls-1" d="M652.468,235.982v-7.313c3.313,2.683,9.478,4.5,16.538,4.5v-2.588c-10.1,0-16.538-3.8-16.538-6.413v-7.313c3.313,2.683,9.478,4.5,16.538,4.5s13.225-1.8,16.538-4.5v7.313a2.627,2.627,0,0,1-.72,1.631l3.307,2.981V212.356c0-4.973-8.562-9-19.125-9s-19.126,4.028-19.126,9v23.626c0,4.973,8.561,9,19.126,9v-2.587c-10.1,0-16.538-3.8-16.538-6.413Zm16.538-30.038c10.125,0,16.538,3.8,16.538,6.413s-6.413,6.413-16.538,6.413-16.538-3.8-16.538-6.413,6.441-6.413,16.538-6.413Zm0,0" transform="translate(-649.887 -203.334)"/>
        </g>
      </g>
    </g>
  </g>
</svg>
