<svg xmlns="http://www.w3.org/2000/svg" width="80" height="80" viewBox="0 0 80 80">
  <defs>
    <style>
      .cls-1, .cls-2, .cls-4 {
        fill: none;
      }

      .cls-1 {
        stroke: #e2e2e2;
      }

      .cls-2 {
        stroke: #333;
        stroke-linecap: round;
        stroke-miterlimit: 10;
      }

      .cls-3 {
        stroke: none;
      }
    </style>
  </defs>
  <g id="组_976" data-name="组 976" transform="translate(-1504 -2762)">
    <g id="矩形_38" data-name="矩形 38" class="cls-1" transform="translate(1504 2762)">
      <rect class="cls-3" width="80" height="80" rx="19"/>
      <rect class="cls-4" x="0.5" y="0.5" width="79" height="79" rx="18.5"/>
    </g>
    <g id="组_110" data-name="组 110" transform="translate(815.92 2546.61)">
      <path id="路径_86" data-name="路径 86" class="cls-2" d="M731.277,251.889a1.827,1.827,0,0,1-1.027-.293l-1.32-.806A2.193,2.193,0,0,1,728.2,248l.586-1.027a.562.562,0,0,1-.146-.293H727.61a2.035,2.035,0,0,1-1.98-2.053v-1.613a2.035,2.035,0,0,1,1.98-2.053h1.027a.551.551,0,0,0,.146-.293l-.586-1.027a2.114,2.114,0,0,1,.734-2.786l1.32-.807a1.727,1.727,0,0,1,1.467-.22,2.3,2.3,0,0,1,1.246.953l.513.953h.293l.588-.953a2,2,0,0,1,1.246-.953,1.724,1.724,0,0,1,1.466.22l1.32.807a2.188,2.188,0,0,1,.734,2.786l-.586,1.027a.555.555,0,0,1,.147.293h1.027a2.036,2.036,0,0,1,1.98,2.053v1.613a2.036,2.036,0,0,1-1.98,2.053h-1.027a.554.554,0,0,0-.147.293l.586,1.027a2.113,2.113,0,0,1-.734,2.787l-1.32.806a1.729,1.729,0,0,1-1.466.221,2.311,2.311,0,0,1-1.246-.953l-.514-.954h-.293l-.514.954a2.012,2.012,0,0,1-1.246.953,1.261,1.261,0,0,1-.513.072Z" transform="translate(3.996 0)"/>
      <rect id="矩形_71" data-name="矩形 71" class="cls-2" width="16.06" height="16.06" rx="1.734" transform="translate(709.488 236.181)"/>
      <rect id="矩形_72" data-name="矩形 72" class="cls-2" width="16.06" height="16.06" rx="1.734" transform="translate(709.488 256.306)"/>
      <rect id="矩形_73" data-name="矩形 73" class="cls-2" width="16.06" height="16.06" rx="1.734" transform="translate(729.626 256.306)"/>
      <circle id="椭圆_56" data-name="椭圆 56" class="cls-2" cx="2.265" cy="2.265" r="2.265" transform="translate(735.391 241.316)"/>
    </g>
  </g>
</svg>
