<svg xmlns="http://www.w3.org/2000/svg" width="80" height="80" viewBox="0 0 80 80">
  <defs>
    <style>
      .cls-1, .cls-2, .cls-4 {
        fill: none;
      }

      .cls-1 {
        stroke: #e2e2e2;
      }

      .cls-2 {
        stroke: #333;
        stroke-linecap: round;
        stroke-miterlimit: 10;
      }

      .cls-3 {
        stroke: none;
      }
    </style>
  </defs>
  <g id="组_978" data-name="组 978" transform="translate(-1504 -3052)">
    <g id="矩形_40" data-name="矩形 40" class="cls-1" transform="translate(1504 3052)">
      <rect class="cls-3" width="80" height="80" rx="19"/>
      <rect class="cls-4" x="0.5" y="0.5" width="79" height="79" rx="18.5"/>
    </g>
    <g id="组_112" data-name="组 112" transform="translate(796.304 2742.93)">
      <rect id="矩形_82" data-name="矩形 82" class="cls-2" width="16.352" height="6.554" rx="2.29" transform="translate(739.524 360.75)"/>
      <rect id="矩形_83" data-name="矩形 83" class="cls-2" width="16.352" height="6.554" rx="2.29" transform="translate(739.524 345.642)"/>
      <rect id="矩形_84" data-name="矩形 84" class="cls-2" width="16.352" height="6.554" rx="2.29" transform="translate(739.524 330.534)"/>
      <path id="路径_88" data-name="路径 88" class="cls-2" d="M735.672,348.471a8.012,8.012,0,0,1,0-16.024" transform="translate(0 0.824)"/>
      <path id="路径_89" data-name="路径 89" class="cls-2" d="M732.233,341.673l2.261,2.824-3.375,2.255" transform="translate(1.49 4.799)"/>
      <path id="路径_90" data-name="路径 90" class="cls-2" d="M750.078,358.987a8.012,8.012,0,0,0,0-16.024" transform="translate(9.659 5.355)"/>
      <path id="路径_91" data-name="路径 91" class="cls-2" d="M752.12,352.189l-2.261,2.824,3.375,2.255" transform="translate(9.565 9.33)"/>
    </g>
  </g>
</svg>
