<svg xmlns="http://www.w3.org/2000/svg" width="80" height="80" viewBox="0 0 80 80">
  <defs>
    <style>
      .cls-1, .cls-2, .cls-4 {
        fill: none;
      }

      .cls-1 {
        stroke: #d8d8d8;
      }

      .cls-2 {
        stroke: #333;
        stroke-linecap: round;
      }

      .cls-3 {
        stroke: none;
      }
    </style>
  </defs>
  <g id="组_986" data-name="组 986" transform="translate(-502 -3042)">
    <g id="矩形_31" data-name="矩形 31" class="cls-1" transform="translate(502 3042)">
      <rect class="cls-3" width="80" height="80" rx="19"/>
      <rect class="cls-4" x="0.5" y="0.5" width="79" height="79" rx="18.5"/>
    </g>
    <g id="组_98" data-name="组 98" transform="translate(349.135 2569.329)">
      <g id="组_97" data-name="组 97">
        <g id="组_53" data-name="组 53">
          <path id="路径_27" data-name="路径 27" class="cls-2" d="M208.739,509.614v-11.3l-11.4-6.647-11.31,6.642v4.558"/>
          <path id="路径_28" data-name="路径 28" class="cls-2" d="M186.029,498.776l11.092,6.081,11.583-6.475"/>
        </g>
        <line id="直线_15" data-name="直线 15" class="cls-2" y2="4.368" transform="translate(197.452 504.665)"/>
        <line id="直线_16" data-name="直线 16" class="cls-2" x2="11.106" y2="6.532" transform="translate(192.02 494.795)"/>
      </g>
      <g id="组_97-2" data-name="组 97">
        <g id="组_53-2" data-name="组 53">
          <path id="路径_27-2" data-name="路径 27" class="cls-2" d="M193.575,511.979V508.97l-11.4-6.647-11.31,6.642V521.98l11.31,6.709,6.714-3.951"/>
          <path id="路径_28-2" data-name="路径 28" class="cls-2" d="M170.865,509.428l11.092,6.08,11.583-6.474"/>
        </g>
        <line id="直线_15-2" data-name="直线 15" class="cls-2" y2="13.351" transform="translate(182.288 515.317)"/>
        <line id="直线_16-2" data-name="直线 16" class="cls-2" x2="11.106" y2="6.532" transform="translate(176.857 505.446)"/>
      </g>
      <g id="组_97-3" data-name="组 97">
        <g id="组_53-3" data-name="组 53">
          <path id="路径_27-3" data-name="路径 27" class="cls-2" d="M202.593,508.434l-11.31,6.642v13.015l11.31,6.709,11.4-6.709v-13.01Z"/>
          <path id="路径_28-3" data-name="路径 28" class="cls-2" d="M191.283,515.539l11.092,6.08,11.583-6.474"/>
        </g>
        <line id="直线_15-3" data-name="直线 15" class="cls-2" y2="13.351" transform="translate(202.706 521.428)"/>
        <line id="直线_16-3" data-name="直线 16" class="cls-2" x2="10.996" y2="6.468" transform="translate(197.384 511.622)"/>
      </g>
    </g>
  </g>
</svg>
