<svg xmlns="http://www.w3.org/2000/svg" width="80" height="80" viewBox="0 0 80 80">
  <defs>
    <style>
      .cls-1, .cls-2, .cls-4 {
        fill: none;
      }

      .cls-1 {
        stroke: #d8d8d8;
      }

      .cls-2 {
        stroke: #333;
        stroke-linecap: round;
        stroke-miterlimit: 10;
      }

      .cls-3 {
        stroke: none;
      }
    </style>
  </defs>
  <g id="组_987" data-name="组 987" transform="translate(-352 -3042)">
    <g id="矩形_31" data-name="矩形 31" class="cls-1" transform="translate(352 3042)">
      <rect class="cls-3" width="80" height="80" rx="19"/>
      <rect class="cls-4" x="0.5" y="0.5" width="79" height="79" rx="18.5"/>
    </g>
    <g id="组_94" data-name="组 94" transform="translate(313.089 2705.43)">
      <path id="路径_75" data-name="路径 75" class="cls-2" d="M69.531,368.014" transform="translate(2.091 1.411)"/>
      <path id="路径_76" data-name="路径 76" class="cls-2" d="M75.729,368.014" transform="translate(3.494 1.411)"/>
      <g id="组_93" data-name="组 93" transform="translate(60.291 361.778)">
        <path id="路径_77" data-name="路径 77" class="cls-2" d="M64.423,391.156H86.807V368.548l-3.285-2.9" transform="translate(-59.356 -360.901)"/>
        <path id="路径_78" data-name="路径 78" class="cls-2" d="M65.358,392.032V369.425l-5.067-7.647" transform="translate(-60.291 -361.778)"/>
        <path id="路径_79" data-name="路径 79" class="cls-2" d="M65.358,392.032l-5.067-8.8V361.778H76.935" transform="translate(-60.291 -361.778)"/>
      </g>
      <circle id="椭圆_45" data-name="椭圆 45" class="cls-2" cx="7.016" cy="7.016" r="7.016" transform="translate(76.935 365.135)"/>
      <circle id="椭圆_46" data-name="椭圆 46" class="cls-2" cx="10.372" cy="10.372" r="10.372" transform="translate(73.579 361.778)"/>
      <path id="矩形_64" data-name="矩形 64" class="cls-2" d="M0,0H7.728A1.647,1.647,0,0,1,9.375,1.647v.746A1.647,1.647,0,0,1,7.728,4.04H0a0,0,0,0,1,0,0V0A0,0,0,0,1,0,0Z" transform="translate(92.894 377.854) rotate(45)"/>
      <line id="直线_50" data-name="直线 50" class="cls-2" x1="6.264" transform="translate(65.358 369.425)"/>
      <line id="直线_51" data-name="直线 51" class="cls-2" x2="7.406" transform="translate(80.336 369.425)"/>
    </g>
  </g>
</svg>
