<svg xmlns="http://www.w3.org/2000/svg" width="80" height="80" viewBox="0 0 80 80">
  <defs>
    <style>
      .cls-1, .cls-2, .cls-3, .cls-5 {
        fill: none;
      }

      .cls-1 {
        stroke: #e2e2e2;
      }

      .cls-2, .cls-3 {
        stroke: #333;
        stroke-miterlimit: 10;
      }

      .cls-3 {
        stroke-linecap: round;
      }

      .cls-4 {
        stroke: none;
      }
    </style>
  </defs>
  <g id="组_990" data-name="组 990" transform="translate(-652 -2872)">
    <g id="矩形_31" data-name="矩形 31" class="cls-1" transform="translate(652 2872)">
      <rect class="cls-4" width="80" height="80" rx="19"/>
      <rect class="cls-5" x="0.5" y="0.5" width="79" height="79" rx="18.5"/>
    </g>
    <g id="组_92" data-name="组 92" transform="translate(464.653 2594.9)">
      <path id="路径_65" data-name="路径 65" class="cls-2" d="M227.448,299.208V335.14a4.914,4.914,0,0,1-4.432,1.419c-2.785-.545-3.31-3.605-3.31-3.605s-3.014,1.359-4.937.521c-1.426-.622-2.037-2.884-1.328-4.775-1.951-.118-3.133-.828-3.605-2.128s.118-2.364,1.359-3.191a4.188,4.188,0,0,1-.117-6.855c-.651-1.123-1.479-4.964,1-5.792-.413-1.359-.591-5.141,2.6-6.087-.177-1.6,1.477-4.727,5.378-3.9C221.951,298.144,224.375,297.14,227.448,299.208Z" transform="translate(0 0)"/>
      <path id="路径_66" data-name="路径 66" class="cls-2" d="M223.254,299.208V335.14a7.933,7.933,0,0,0,4.433,1.419c2.955.092,3.722-3.073,3.722-3.073s3,1.43,4.523-.012c1.8-1.7,1.011-3.35.737-4.6,1.951-.118,3.547-.354,4.2-2.305.437-1.312-.118-2.364-1.359-3.191a4.188,4.188,0,0,0,.118-6.855c.649-1.123,1.477-4.964-1-5.792.414-1.359.591-5.141-2.6-6.087.177-1.6-1.477-4.727-5.378-3.9C228.751,298.144,226.327,297.14,223.254,299.208Z" transform="translate(4.194 0)"/>
      <circle id="椭圆_40" data-name="椭圆 40" class="cls-2" cx="1.64" cy="1.64" r="1.64" transform="translate(220.974 305.895)"/>
      <circle id="椭圆_41" data-name="椭圆 41" class="cls-2" cx="1.64" cy="1.64" r="1.64" transform="translate(215.371 314.783)"/>
      <circle id="椭圆_42" data-name="椭圆 42" class="cls-2" cx="1.64" cy="1.64" r="1.64" transform="translate(221.41 315.337)"/>
      <circle id="椭圆_43" data-name="椭圆 43" class="cls-2" cx="1.64" cy="1.64" r="1.64" transform="translate(221.41 326.875)"/>
      <circle id="椭圆_44" data-name="椭圆 44" class="cls-2" cx="1.64" cy="1.64" r="1.64" transform="translate(215.371 321.122)"/>
      <path id="路径_67" data-name="路径 67" class="cls-2" d="M219.255,305.349h-4.208V312.6" transform="translate(1.719 2.186)"/>
      <line id="直线_47" data-name="直线 47" class="cls-2" x2="2.858" transform="translate(218.551 316.977)"/>
      <line id="直线_48" data-name="直线 48" class="cls-2" y2="8.258" transform="translate(223.05 318.617)"/>
      <line id="直线_49" data-name="直线 49" class="cls-2" x1="3.756" y1="3.416" transform="translate(218.211 323.874)"/>
      <path id="路径_68" data-name="路径 68" class="cls-3" d="M228.4,302.8a3.872,3.872,0,0,0-2.792,3.319" transform="translate(4.903 1.417)"/>
      <path id="路径_69" data-name="路径 69" class="cls-3" d="M232.829,308.6a3.868,3.868,0,0,0-3.288-2.828" transform="translate(6.09 2.314)"/>
      <path id="路径_70" data-name="路径 70" class="cls-3" d="M226.293,309.322a3.87,3.87,0,0,0,3.121,3.011" transform="translate(5.11 3.384)"/>
      <path id="路径_71" data-name="路径 71" class="cls-3" d="M231.256,314.9a3.873,3.873,0,0,0,1.663-4.006" transform="translate(6.607 3.857)"/>
      <path id="路径_72" data-name="路径 72" class="cls-3" d="M229.732,315.232A3.871,3.871,0,0,0,226.1,317.6" transform="translate(5.051 5.165)"/>
      <path id="路径_73" data-name="路径 73" class="cls-3" d="M233.359,319.838a3.871,3.871,0,0,0-2.856-3.264" transform="translate(6.38 5.571)"/>
      <path id="路径_74" data-name="路径 74" class="cls-3" d="M228.667,324.751a3.872,3.872,0,0,0-.362-4.322" transform="translate(5.717 6.734)"/>
    </g>
  </g>
</svg>
