<svg xmlns="http://www.w3.org/2000/svg" width="80" height="80" viewBox="0 0 80 80">
  <defs>
    <style>
      .cls-1, .cls-2, .cls-4 {
        fill: none;
      }

      .cls-1 {
        stroke: #e2e2e2;
      }

      .cls-2 {
        stroke: #333;
        stroke-miterlimit: 10;
      }

      .cls-3 {
        stroke: none;
      }
    </style>
  </defs>
  <g id="组_994" data-name="组 994" transform="translate(-705 -2617)">
    <g id="矩形_31" data-name="矩形 31" class="cls-1" transform="translate(705 2617)">
      <rect class="cls-3" width="80" height="80" rx="19"/>
      <rect class="cls-4" x="0.5" y="0.5" width="79" height="79" rx="18.5"/>
    </g>
    <g id="组_85" data-name="组 85" transform="translate(489.591 2454.789)">
      <path id="路径_49" data-name="路径 49" class="cls-2" d="M245.4,206.215h-2.1a6.249,6.249,0,0,1-6.286-6.845c.006-.044.011-.089.016-.135.609-4.545,5.34-4.685,5.34-4.685a6.54,6.54,0,0,1,2.765-4.964c2.717-1.828,6-.188,6-.188s4.191-4.941,10.024-3.472c6.138,1.546,6.138,8.251,6.138,8.251s6.793-.094,6.933,6.417-10.025,6.043-10.025,6.043"/>
      <path id="路径_50" data-name="路径 50" class="cls-2" d="M253.06,198.534a6.692,6.692,0,0,1,5.011-3.138c3.681-.349,7.215,4.263,3.7,8.76-1.576,1.8-8.761,8.572-8.761,8.572s-7.183-6.776-8.76-8.572c-3.513-4.5.021-9.109,3.7-8.76a6.692,6.692,0,0,1,5.011,3.138Z" transform="translate(2.191 3.652)"/>
      <path id="路径_51" data-name="路径 51" class="cls-2" d="M242.284,207.133a3.319,3.319,0,0,1,2.486-1.556c1.824-.173,3.575,2.113,1.834,4.341-.781.891-4.341,4.249-4.341,4.249s-3.561-3.358-4.343-4.249c-1.741-2.228.01-4.515,1.834-4.341a3.319,3.319,0,0,1,2.486,1.556Z" transform="translate(0.087 7.479)"/>
      <path id="路径_52" data-name="路径 52" class="cls-2" d="M261.78,207.133a3.319,3.319,0,0,1,2.484-1.556c1.824-.173,3.575,2.113,1.834,4.341-.781.891-4.341,4.249-4.341,4.249s-3.561-3.358-4.343-4.249c-1.741-2.228.011-4.515,1.835-4.341a3.319,3.319,0,0,1,2.484,1.556Z" transform="translate(7.408 7.479)"/>
    </g>
  </g>
</svg>
