<svg xmlns="http://www.w3.org/2000/svg" width="80" height="80" viewBox="0 0 80 80">
  <defs>
    <style>
      .cls-1, .cls-2, .cls-4 {
        fill: none;
      }

      .cls-1 {
        stroke: #e2e2e2;
      }

      .cls-2 {
        stroke: #333;
        stroke-miterlimit: 10;
      }

      .cls-3 {
        stroke: none;
      }
    </style>
  </defs>
  <g id="组_996" data-name="组 996" transform="translate(-1028 -2617)">
    <g id="矩形_31" data-name="矩形 31" class="cls-1" transform="translate(1028 2617)">
      <rect class="cls-3" width="80" height="80" rx="19"/>
      <rect class="cls-4" x="0.5" y="0.5" width="79" height="79" rx="18.5"/>
    </g>
    <g id="组_87" data-name="组 87" transform="translate(639.219 2453.634)">
      <ellipse id="椭圆_31" data-name="椭圆 31" class="cls-2" cx="17.5" cy="5.818" rx="17.5" ry="5.818" transform="translate(411.781 186.366)"/>
      <path id="路径_54" data-name="路径 54" class="cls-2" d="M423.438,209.557c-6.792-.8-11.657-2.953-11.657-5.485" transform="translate(0 6.885)"/>
      <path id="路径_55" data-name="路径 55" class="cls-2" d="M423.438,202.5c-6.792-.8-11.657-2.954-11.657-5.486" transform="translate(0 4.141)"/>
      <path id="路径_56" data-name="路径 56" class="cls-2" d="M424.381,208.26" transform="translate(4.9 8.514)"/>
      <line id="直线_32" data-name="直线 32" class="cls-2" y1="18.773" transform="translate(411.781 192.184)"/>
      <line id="直线_33" data-name="直线 33" class="cls-2" y1="6.511" transform="translate(446.781 192.184)"/>
      <circle id="椭圆_32" data-name="椭圆 32" class="cls-2" cx="9.381" cy="9.381" r="9.381" transform="translate(428.02 203.362)"/>
      <path id="路径_57" data-name="路径 57" class="cls-2" d="M426.584,207.069l3.342,2.743,5.991-6.4" transform="translate(5.756 6.63)"/>
    </g>
  </g>
</svg>
