<svg xmlns="http://www.w3.org/2000/svg" width="67" height="67" viewBox="0 0 67 67">
  <defs>
    <style>
      .cls-1 {
        fill: #36f;
      }

      .cls-2 {
        fill: #fff;
      }
    </style>
  </defs>
  <g id="组_967" data-name="组 967" transform="translate(-671 -396)">
    <circle id="椭圆_114" data-name="椭圆 114" class="cls-1" cx="33.5" cy="33.5" r="33.5" transform="translate(671 396)"/>
    <g id="组_453" data-name="组 453" transform="translate(4920.488 -789.344)">
      <path id="联合_5" data-name="联合 5" class="cls-2" d="M14.783,29.9l.652-5.555H9.967L8.412,29.9H0L12.388,3.965H6.273l2.52-1.7h4.4L14.255.057h2.513l-.619,2.211h1.878L18.294,0h2.8l.1,2.267h4.777l2.031,1.7H26.212L21.6,11.093,22.452,29.9Zm.852-7.253.5-4.246h-4.5l-1.189,4.246Zm.7-5.944.4-3.4H13.058l-.951,3.4Zm.6-5.095.4-3.4H14.485l-.951,3.4Zm4.552-3.063,3.07-4.579H21.275ZM17.529,6.513l.3-2.547H15.674L14.96,6.513Z" transform="translate(-4230.388 1203.33)"/>
    </g>
  </g>
</svg>
