<svg xmlns="http://www.w3.org/2000/svg" width="67" height="67" viewBox="0 0 67 67">
  <defs>
    <style>
      .cls-1 {
        fill: #36f;
      }

      .cls-2 {
        fill: #fff;
      }
    </style>
  </defs>
  <g id="组_968" data-name="组 968" transform="translate(-800 -516)">
    <circle id="椭圆_118" data-name="椭圆 118" class="cls-1" cx="33.5" cy="33.5" r="33.5" transform="translate(800 516)"/>
    <path id="联合_7" data-name="联合 7" class="cls-2" d="M4.568,29a3,3,0,0,1-2.477-1.307,2.981,2.981,0,0,0,1.693.523H25.216a3,3,0,0,0,3-3V3.784a2.985,2.985,0,0,0-.523-1.693A3,3,0,0,1,29,4.568V26a3,3,0,0,1-3,3ZM3,27.432a3,3,0,0,1-3-3V3A3,3,0,0,1,3,0H24.432a3,3,0,0,1,3,3V24.432a3,3,0,0,1-3,3ZM7.274,8.545,18.417,19.688l-2.186.994L22.6,22.621l-1.94-6.373L19.58,18.633,8.327,7.38,10.713,6.3,4.339,4.356l1.94,6.374.993-2.185h0Z" transform="translate(819 535)"/>
  </g>
</svg>
