<svg xmlns="http://www.w3.org/2000/svg" width="67" height="67" viewBox="0 0 67 67">
  <defs>
    <style>
      .cls-1 {
        fill: #36f;
      }

      .cls-2 {
        fill: #fff;
      }
    </style>
  </defs>
  <g id="组_969" data-name="组 969" transform="translate(-901 -649)">
    <circle id="椭圆_117" data-name="椭圆 117" class="cls-1" cx="33.5" cy="33.5" r="33.5" transform="translate(901 649)"/>
    <g id="组_454" data-name="组 454" transform="translate(315.554 470)">
      <path id="路径_971" data-name="路径 971" class="cls-2" d="M620.108,207.778l.567-.023q3.694-.158,5.618-.381l.355-.045a.319.319,0,0,1,.358.272q.05.363.076.578a34.322,34.322,0,0,1,.226,4.039,34.8,34.8,0,0,1-.193,3.743q-.014.124-.037.317a.318.318,0,0,1-.358.278l-.193-.025a57.59,57.59,0,0,0-6.1-.4l-.308,0a.318.318,0,0,1-.314-.319V208.1a.319.319,0,0,1,.306-.318Zm-9.483,8.5c-.017-.146-.031-.265-.041-.357a34.746,34.746,0,0,1-.189-3.707,34.153,34.153,0,0,1,.244-4.186q.021-.167.059-.44a.319.319,0,0,1,.36-.271l.392.054a53.615,53.615,0,0,0,5.754.4l.372.007a.318.318,0,0,1,.314.319v7.7a.319.319,0,0,1-.314.319l-.26,0a57.757,57.757,0,0,0-6.059.4l-.274.036a.319.319,0,0,1-.358-.278Zm7.265-20.93v10.177a.318.318,0,0,1-.324.319h-.079a52.465,52.465,0,0,1-5.8-.395l-.232-.032a.319.319,0,0,1-.266-.391c.016-.066.03-.123.042-.169a16.549,16.549,0,0,1,6.115-9.563c.05-.037.11-.081.182-.132a.231.231,0,0,1,.366.188Zm1.912-.018a.225.225,0,0,1,.357-.183q.132.094.262.192a16.483,16.483,0,0,1,5.987,9.26q.043.163.11.436a.319.319,0,0,1-.266.391l-.234.031a51.8,51.8,0,0,1-5.389.378l-.5.009a.319.319,0,0,1-.324-.319v-10.2Zm-8.48,23.112.474-.059q2.461-.289,5.527-.347l.243,0a.318.318,0,0,1,.323.319v10.559a.319.319,0,0,1-.507.257q-.119-.087-.235-.176a16.676,16.676,0,0,1-5.98-9.655q-.046-.188-.116-.509a.319.319,0,0,1,.27-.384Zm15.33.38q-.047.217-.1.434a16.726,16.726,0,0,1-5.912,9.667q-.131.1-.332.25a.319.319,0,0,1-.507-.257V218.353a.318.318,0,0,1,.323-.319l.51.009q2.929.064,5.3.342l.447.056a.319.319,0,0,1,.27.384Zm2.568-6.607a36.558,36.558,0,0,0-.229-4.178q-.033-.29-.1-.8a.319.319,0,0,1,.246-.355l.293-.067a14.637,14.637,0,0,0,5.038-2.065l.131-.092a.319.319,0,0,1,.472.127q.109.237.174.387a17.909,17.909,0,0,1,.242,13.525c-.04.1-.08.2-.122.3a.319.319,0,0,1-.472.143l-.094-.063a15.5,15.5,0,0,0-5.284-2.049l-.3-.063a.319.319,0,0,1-.252-.351q.025-.2.048-.408a36.787,36.787,0,0,0,.208-4ZM624.5,195.3a17.89,17.89,0,0,1,8.921,6.627q.141.2.375.555a.319.319,0,0,1-.083.436l-.355.248a12.441,12.441,0,0,1-4.127,1.708q-.157.039-.427.1a.319.319,0,0,1-.381-.238q-.026-.113-.054-.226a19.248,19.248,0,0,0-4.96-9.2.168.168,0,0,1,.163-.28q.586.16.929.274Zm4.431,23.566q.2.043.409.089a13.281,13.281,0,0,1,4.376,1.711l.381.255a.319.319,0,0,1,.1.428q-.178.3-.287.469a17.894,17.894,0,0,1-9.484,7.374q-.231.076-.574.172a.257.257,0,0,1-.254-.426,19.473,19.473,0,0,0,4.854-9.346q.041-.178.106-.482a.319.319,0,0,1,.378-.245Zm-25.992.217-.126.084a.318.318,0,0,1-.472-.142l-.05-.121a17.907,17.907,0,0,1,.152-13.708q.074-.173.2-.453a.319.319,0,0,1,.472-.127l.195.136a14.411,14.411,0,0,0,4.853,2.02q.151.037.408.095a.319.319,0,0,1,.245.356q-.036.25-.068.5a36.113,36.113,0,0,0-.267,4.491,36.626,36.626,0,0,0,.217,4.073q.019.169.04.337a.319.319,0,0,1-.251.351l-.267.057a15.5,15.5,0,0,0-5.285,2.049Zm11.413-23.829a19.273,19.273,0,0,0-5.04,9.37l-.023.1a.319.319,0,0,1-.381.238l-.228-.053a12.614,12.614,0,0,1-4.255-1.739l-.413-.289a.318.318,0,0,1-.084-.436q.1-.15.2-.3a17.888,17.888,0,0,1,9.191-6.883q.326-.107.889-.258a.15.15,0,0,1,.145.251ZM603.61,220.943l.41-.274a13.269,13.269,0,0,1,4.361-1.708q.2-.045.394-.087a.319.319,0,0,1,.378.246q.06.282.1.448a19.5,19.5,0,0,0,4.83,9.341l.009.009a.27.27,0,0,1-.27.446,17.888,17.888,0,0,1-10.124-7.692q-.093-.149-.182-.3a.319.319,0,0,1,.1-.428Zm0,0"/>
    </g>
  </g>
</svg>
