<svg xmlns="http://www.w3.org/2000/svg" width="67" height="67" viewBox="0 0 67 67">
  <defs>
    <style>
      .cls-1 {
        fill: #36f;
      }

      .cls-2 {
        fill: #fff;
      }
    </style>
  </defs>
  <g id="组_970" data-name="组 970" transform="translate(-1094 -600)">
    <circle id="椭圆_116" data-name="椭圆 116" class="cls-1" cx="33.5" cy="33.5" r="33.5" transform="translate(1094 600)"/>
    <g id="组_455" data-name="组 455" transform="translate(501 395.748)">
      <path id="路径_972" data-name="路径 972" class="cls-2" d="M640.035,252.671H618.543A6.542,6.542,0,0,1,612,246.128V227.4a1.642,1.642,0,0,1,3.283,0v18.724a3.263,3.263,0,0,0,3.263,3.263h21.492a1.64,1.64,0,1,1,0,3.28Zm0,0" transform="translate(0 -1.687)"/>
      <path id="路径_973" data-name="路径 973" class="cls-2" d="M751.4,232.6h-3.461a1.3,1.3,0,0,0-1.294,1.294v9.4a1.3,1.3,0,0,0,1.294,1.294H751.4a1.3,1.3,0,0,0,1.294-1.294v-9.393a1.294,1.294,0,0,0-1.294-1.3Zm8.331-8.6h-2.655a1.7,1.7,0,0,0-1.7,1.7v17.188a1.7,1.7,0,0,0,1.7,1.7h2.655a1.7,1.7,0,0,0,1.7-1.7V225.7a1.694,1.694,0,0,0-1.7-1.7Zm8.98,5.485h-3.143a1.455,1.455,0,0,0-1.454,1.454v12.188a1.455,1.455,0,0,0,1.454,1.454h3.143a1.455,1.455,0,0,0,1.454-1.454V230.939a1.455,1.455,0,0,0-1.454-1.454Zm0,0" transform="translate(-128.897)"/>
    </g>
  </g>
</svg>
