<svg xmlns="http://www.w3.org/2000/svg" xmlns:xlink="http://www.w3.org/1999/xlink" width="62.666" height="47.761" viewBox="0 0 62.666 47.761">
  <defs>
    <style>
      .cls-1 {
        fill: #fff;
      }

      .cls-2 {
        clip-path: url(#clip-path);
      }
    </style>
    <clipPath id="clip-path">
      <rect id="矩形_872" data-name="矩形 872" class="cls-1" width="62.666" height="47.762"/>
    </clipPath>
  </defs>
  <g id="组_1026" data-name="组 1026" transform="translate(-577 -249)">
    <g id="组_946" data-name="组 946" transform="translate(577 249)">
      <g id="组_945" data-name="组 945" class="cls-2">
        <path id="路径_2547" data-name="路径 2547" class="cls-1" d="M767.881,521.384h-3.169l-1.26-3.274h-5.757l-1.193,3.274h-3.087l5.615-14.408h3.058Zm-5.362-5.713-1.984-5.347-1.946,5.347Zm6.906,5.713V506.977h4.668a16.575,16.575,0,0,1,3.46.216,3.78,3.78,0,0,1,2.073,1.409,4.472,4.472,0,0,1,.835,2.8,4.588,4.588,0,0,1-.484,2.237,3.9,3.9,0,0,1-1.223,1.424,4.193,4.193,0,0,1-1.491.686,17.042,17.042,0,0,1-2.983.2h-1.947v5.437Zm2.908-11.932v4.087h1.589a7.625,7.625,0,0,0,2.3-.224,1.922,1.922,0,0,0,.91-.708,1.954,1.954,0,0,0,.328-1.119,1.857,1.857,0,0,0-.463-1.335,1.989,1.989,0,0,0-1.171-.641,13.815,13.815,0,0,0-2.1-.1Zm10.433,11.932V506.977h2.909v14.408Zm0,0" transform="translate(-738.961 -485.827)"/>
        <path id="路径_2548" data-name="路径 2548" class="cls-1" d="M624.661,294.73H609.239V291.3h15.422a10.866,10.866,0,0,0,9.963-5.489,13.46,13.46,0,0,0-.254-13.1c-2.386-3.922-6.711-5.966-12.208-5.794l-1.767.067v-1.783a11.66,11.66,0,0,0-3.587-8.949,11.881,11.881,0,0,0-8.017-2.916c-5.794,0-12.275,3.729-12.275,11.88v1.768l-1.8-.1c-5.586-.284-9.985,1.7-12.417,5.593a13.006,13.006,0,0,0-.306,12.886c2.11,3.811,5.966,5.906,10.888,5.906H599.1v3.43h-6.227c-6.123,0-11.186-2.8-13.886-7.666a16.5,16.5,0,0,1,.4-16.406c2.856-4.571,7.7-7.1,13.781-7.226.843-8.86,8.4-13.513,15.623-13.513a15.3,15.3,0,0,1,10.321,3.8,14.587,14.587,0,0,1,4.639,9.791c5.966.231,10.754,2.841,13.55,7.458a16.75,16.75,0,0,1,.313,16.555,14.371,14.371,0,0,1-12.954,7.226Zm0,0" transform="translate(-577 -249.821)"/>
      </g>
    </g>
    <path id="路径_2549" data-name="路径 2549" class="cls-1" d="M938.645,726.247l5.966,4.474v-8.949Zm0,0" transform="translate(-332.016 -434.039)"/>
  </g>
</svg>
