<svg xmlns="http://www.w3.org/2000/svg" xmlns:xlink="http://www.w3.org/1999/xlink" width="135.584" height="86.88" viewBox="0 0 135.584 86.88">
  <defs>
    <style>
      .cls-1 {
        fill: #36f;
      }

      .cls-2 {
        clip-path: url(#clip-path);
      }
    </style>
    <clipPath id="clip-path">
      <rect id="矩形_869" data-name="矩形 869" class="cls-1" width="135.584" height="86.88"/>
    </clipPath>
  </defs>
  <g id="组_938" data-name="组 938" transform="translate(-555 -281)">
    <g id="组_937" data-name="组 937" transform="translate(555 281)">
      <g id="组_936" data-name="组 936" class="cls-2">
        <path id="路径_2539" data-name="路径 2539" class="cls-1" d="M1060.325,583.568v-2.546h50.949v2.546Zm35.667-43.31v38.221h15.281V540.258Zm10.184,33.125h-5.092V545.354h5.092Zm-28.029-22.932v28.033h15.286V550.451Zm10.2,22.932h-5.1V555.548h5.1Zm-28.02-12.735v17.836h15.281V560.648Zm10.185,12.735h-5.092v-7.647h5.092Zm0,0" transform="translate(-975.715 -496.848)"/>
        <path id="路径_2540" data-name="路径 2540" class="cls-1" d="M593.149,380.074a7.788,7.788,0,1,0-.047-4.526H570.148a7.832,7.832,0,1,0-.056,4.526Zm39.829-41.543h6.34v4.518h-6.34Zm8.2,0h6.34v4.518h-6.34ZM593.1,402.921h6.335v4.514H593.1Zm8.148,0h6.335v4.514H601.25Zm8.153,0h6.34v4.514H609.4Zm0,0" transform="translate(-554.899 -328.898)"/>
      </g>
    </g>
    <path id="路径_2541" data-name="路径 2541" class="cls-1" d="M654.439,320.878h6.331V325.4h-6.331Zm8.153,0h6.331V325.4h-6.331Zm8.149,0h6.339V325.4h-6.339Zm27.471,1.406h6.339V326.8h-6.339Zm8.152,0H712.7V326.8h-6.336Zm8.149,0h6.34V326.8h-6.34ZM660.045,281.16h6.335v4.517h-6.335Zm8.153,0h6.335v4.517H668.2Zm8.153,0h6.34v4.517h-6.34Zm0,0" transform="translate(-82.789 -0.133)"/>
    <path id="路径_2542" data-name="路径 2542" class="cls-1" d="M564.563,303.554a7.856,7.856,0,0,0,7.322-5.144h17.857a4.7,4.7,0,0,1,3.069,1.4l10.592,16.67a9.166,9.166,0,0,0,7.064,3.532h10.643a9.7,9.7,0,1,0-.57-4.574H610.467a4.511,4.511,0,0,1-3.215-1.4l-10.544-16.614a8.264,8.264,0,0,0-6.808-3.433H572.142a7.79,7.79,0,1,0-7.579,9.563Zm0,0" transform="translate(-1.478 -5.802)"/>
    <path id="路径_2543" data-name="路径 2543" class="cls-1" d="M714.01,316.909a7.844,7.844,0,0,0,7.218-4.826h14.6v-4.522H721.7a7.79,7.79,0,0,0-15.423,1.556,7.732,7.732,0,0,0,7.733,7.792Zm-17.45,9.083a7.788,7.788,0,1,0-7.789,7.793,7.77,7.77,0,0,0,7.789-7.793Zm54.892,14.75a7.717,7.717,0,0,0-7.476,5.662h-14.54c-2.336,0-5.2.313-6.8,2.649l-10.6,15.778a4.433,4.433,0,0,1-3.219,1.41H695.733a7.721,7.721,0,1,0,.056,4.514h12.932c2.383,0,5.611-1.148,7.06-3.381l10.6-15.83c.052-.1.467-.523,3.065-.523h14.7a7.79,7.79,0,0,0,15.157-2.542,7.888,7.888,0,0,0-7.844-7.737Zm0,0" transform="translate(-104.507 -16.928)"/>
    <path id="路径_2544" data-name="路径 2544" class="cls-1" d="M938.247,648.648a7.789,7.789,0,1,0,7.784,7.8,7.785,7.785,0,0,0-7.784-7.8Zm0,0" transform="translate(-312.592 -306.09)"/>
  </g>
</svg>
