<svg xmlns="http://www.w3.org/2000/svg" xmlns:xlink="http://www.w3.org/1999/xlink" width="62.871" height="40.287" viewBox="0 0 62.871 40.287">
  <defs>
    <style>
      .cls-1 {
        fill: #fff;
      }

      .cls-2 {
        clip-path: url(#clip-path);
      }
    </style>
    <clipPath id="clip-path">
      <rect id="矩形_869" data-name="矩形 869" class="cls-1" width="62.871" height="40.287"/>
    </clipPath>
  </defs>
  <g id="组_938" data-name="组 938" transform="translate(-555 -281)">
    <g id="组_937" data-name="组 937" transform="translate(555 281)">
      <g id="组_936" data-name="组 936" class="cls-2">
        <path id="路径_2539" data-name="路径 2539" class="cls-1" d="M1060.325,560.341V559.16h23.625v1.181Zm16.539-20.083v17.724h7.086V540.258Zm4.722,15.36h-2.361v-13h2.361Zm-13-10.634v13h7.088v-13Zm4.729,10.634h-2.363v-8.27h2.363Zm-12.993-5.905v8.271h7.086v-8.271Zm4.723,5.905h-2.361v-3.546h2.361Zm0,0" transform="translate(-1021.091 -520.129)"/>
        <path id="路径_2540" data-name="路径 2540" class="cls-1" d="M572.625,357.795a3.611,3.611,0,1,0-.022-2.1H561.959a3.632,3.632,0,1,0-.026,2.1Zm18.469-19.264h2.94v2.095h-2.94Zm3.8,0h2.94v2.095H594.9ZM572.6,368.389h2.938v2.093H572.6Zm3.778,0h2.938v2.093h-2.938Zm3.78,0h2.94v2.093h-2.94Zm0,0" transform="translate(-554.888 -334.064)"/>
      </g>
    </g>
    <path id="路径_2541" data-name="路径 2541" class="cls-1" d="M654.439,299.578h2.936v2.1h-2.936Zm3.781,0h2.936v2.1h-2.936Zm3.779,0h2.939v2.1H662Zm12.739.652h2.94v2.1h-2.94Zm3.78,0h2.938v2.1h-2.938Zm3.779,0h2.94v2.1H682.3ZM657.039,281.16h2.938v2.095h-2.938Zm3.78,0h2.938v2.095h-2.938Zm3.781,0h2.94v2.095H664.6Zm0,0" transform="translate(-91.718 -0.148)"/>
    <path id="路径_2542" data-name="路径 2542" class="cls-1" d="M560.386,295.2a3.643,3.643,0,0,0,3.4-2.385h8.28a2.178,2.178,0,0,1,1.423.65l4.911,7.73a4.251,4.251,0,0,0,3.276,1.638h4.935a4.5,4.5,0,1,0-.264-2.121h-4.671a2.092,2.092,0,0,1-1.491-.65l-4.889-7.7a3.832,3.832,0,0,0-3.157-1.592H563.9a3.612,3.612,0,1,0-3.514,4.434Zm0,0" transform="translate(-1.637 -6.428)"/>
    <path id="路径_2543" data-name="路径 2543" class="cls-1" d="M696.052,308.555a3.637,3.637,0,0,0,3.347-2.238h6.768v-2.1h-6.549a3.612,3.612,0,0,0-7.152.722,3.586,3.586,0,0,0,3.586,3.613Zm-8.092,4.212a3.611,3.611,0,1,0-3.612,3.614,3.6,3.6,0,0,0,3.612-3.614Zm25.454,6.839a3.578,3.578,0,0,0-3.467,2.626h-6.742a3.586,3.586,0,0,0-3.154,1.228l-4.914,7.316a2.055,2.055,0,0,1-1.492.654h-6.068a3.58,3.58,0,1,0,.026,2.093h6a4.127,4.127,0,0,0,3.274-1.568l4.913-7.341c.024-.048.217-.242,1.421-.242h6.815a3.612,3.612,0,0,0,7.028-1.179,3.658,3.658,0,0,0-3.637-3.588Zm0,0" transform="translate(-115.779 -18.753)"/>
    <path id="路径_2544" data-name="路径 2544" class="cls-1" d="M934.07,648.648a3.612,3.612,0,1,0,3.609,3.616,3.61,3.61,0,0,0-3.609-3.616Zm0,0" transform="translate(-346.307 -339.103)"/>
  </g>
</svg>
