<svg xmlns="http://www.w3.org/2000/svg" xmlns:xlink="http://www.w3.org/1999/xlink" width="53.223" height="52.24" viewBox="0 0 53.223 52.24">
  <defs>
    <style>
      .cls-1 {
        fill: #fff;
      }

      .cls-2 {
        clip-path: url(#clip-path);
      }
    </style>
    <clipPath id="clip-path">
      <rect id="矩形_870" data-name="矩形 870" class="cls-1" width="53.223" height="52.24"/>
    </clipPath>
  </defs>
  <g id="组_941" data-name="组 941" transform="translate(-550 -139)">
    <g id="组_940" data-name="组 940" transform="translate(550 139)">
      <g id="组_939" data-name="组 939" class="cls-2">
        <path id="路径_2545" data-name="路径 2545" class="cls-1" d="M599.266,170.4c-.13,0-14.624-23.853-14.624-23.853a3.083,3.083,0,0,0,1.1-2.665,4.094,4.094,0,0,0-3.965-4.095c-4.29-.065-4.42,4.42-4.29,4.615l-16.249,6.045a3.409,3.409,0,0,0-3.055-1.43,4.078,4.078,0,0,0-4.095,4.095,3.918,3.918,0,0,0,2.6,3.9l-3.7,15.6a3.883,3.883,0,0,0-2.99,3.965,4.078,4.078,0,0,0,4.095,4.095,4.29,4.29,0,0,0,3.185-1.43l15.209,8.449v.13a4.078,4.078,0,0,0,4.095,4.095,3.886,3.886,0,0,0,3.835-4.355l16.184-9.489a4.2,4.2,0,0,0,2.535.585,4.078,4.078,0,0,0,4.095-4.095c-.065-2.08-1.95-4.225-3.965-4.16Zm-17.744-28.663a2.015,2.015,0,1,1-2.015,2.015,2.069,2.069,0,0,1,2.015-2.015Zm-3.185,21.188-7.409-4.29,9.489-10.919h0Zm1.755,3.25,12.609,7.084-13.519.52Zm-2.21-1.1-.91,9.034-6.564.325-4.55-9.424,3.835-4.68Zm.39-18.784c.13.195.325.325.39.52L569.3,157.665l-7.279-4.16v-.52a1.4,1.4,0,0,0-.13-.715Zm-16.834,8.969,6.694,3.77-3.38,3.9-3.445-7.539Zm-5.46-2.275A2.015,2.015,0,1,1,557.994,155a1.984,1.984,0,0,1-2.015-2.015Zm-2.015,25.543a2.015,2.015,0,1,1,2.015-2.015,2.025,2.025,0,0,1-2.015,2.015ZM556.24,173a7.718,7.718,0,0,0-1.04-.52l3.7-15.6c.325-.13.52,0,.845-.13l3.7,7.864Zm1.3,1.43,6.694-7.994,3.7,8.254-10.2.455c-.195-.39,0-.39-.195-.715Zm15.339,10.984-14.559-8.059,10.594-.585,3.9,8.384c-.065.195.13,0,.065.26Zm-1.69-8.709,5.395-.325-.91,7.279c-.39.13-.715.195-1.04.325Zm5.265,13.064a2.015,2.015,0,1,1,2.015-2.015,2.025,2.025,0,0,1-2.015,2.015Zm3.315-4.29a4.519,4.519,0,0,0-2.145-1.625l1.04-7.474,16.249-.845c.13.325.195.585.325.91Zm15.534-13L580.288,163.9l2.145-16.119c.13,0,.2,0,.2-.13l14.169,23.2a3.649,3.649,0,0,0-1.495,1.625Zm3.575,4.03a2.015,2.015,0,1,1,2.015-2.015,1.983,1.983,0,0,1-2.015,2.015Zm0,0" transform="translate(-550 -139.739)"/>
      </g>
    </g>
  </g>
</svg>
