<svg xmlns="http://www.w3.org/2000/svg" xmlns:xlink="http://www.w3.org/1999/xlink" width="102.88" height="100.98" viewBox="0 0 102.88 100.98">
  <defs>
    <style>
      .cls-1 {
        fill: #36f;
      }

      .cls-2 {
        clip-path: url(#clip-path);
      }
    </style>
    <clipPath id="clip-path">
      <rect id="矩形_870" data-name="矩形 870" class="cls-1" width="102.88" height="100.98"/>
    </clipPath>
  </defs>
  <g id="组_941" data-name="组 941" transform="translate(-550 -139)">
    <g id="组_940" data-name="组 940" transform="translate(550 139)">
      <g id="组_939" data-name="组 939" class="cls-2">
        <path id="路径_2545" data-name="路径 2545" class="cls-1" d="M645.231,198.966c-.251,0-28.268-46.108-28.268-46.108a5.959,5.959,0,0,0,2.136-5.151,7.913,7.913,0,0,0-7.664-7.915c-8.292-.126-8.543,8.543-8.292,8.92L571.735,160.4c-1.382-2.01-3.392-2.764-5.9-2.764a7.882,7.882,0,0,0-7.915,7.915c0,3.518,1.885,6.533,5.025,7.538l-7.161,30.152A7.506,7.506,0,0,0,550,210.9a7.882,7.882,0,0,0,7.915,7.915,8.292,8.292,0,0,0,6.156-2.764l29.4,16.333v.251a7.882,7.882,0,0,0,7.915,7.915,7.512,7.512,0,0,0,7.412-8.418l31.283-18.343a8.117,8.117,0,0,0,4.9,1.131,7.882,7.882,0,0,0,7.915-7.915c-.126-4.02-3.769-8.166-7.664-8.041Zm-34.3-55.405a3.895,3.895,0,1,1-3.895,3.895,4,4,0,0,1,3.895-3.895Zm-6.156,40.957-14.322-8.292L608.8,155.119h0Zm3.392,6.282,24.373,13.694L606.41,205.5Zm-4.272-2.136-1.759,17.463-12.689.628-8.794-18.217,7.412-9.046Zm.754-36.309c.251.377.628.628.754,1.005l-18.091,20.981L573.242,166.3V165.3a2.706,2.706,0,0,0-.251-1.382Zm-32.539,17.338,12.94,7.287-6.533,7.538-6.659-14.574Zm-10.553-4.4a3.895,3.895,0,1,1,3.895,3.895,3.835,3.835,0,0,1-3.895-3.895Zm-3.895,49.375a3.895,3.895,0,1,1,3.895-3.895,3.914,3.914,0,0,1-3.895,3.895Zm4.4-10.679a14.919,14.919,0,0,0-2.01-1.005l7.161-30.152c.628-.251,1.005,0,1.633-.251l7.161,15.2Zm2.513,2.764,12.94-15.453,7.161,15.956-19.725.879c-.377-.754,0-.754-.377-1.382Zm29.65,21.232-28.142-15.579,20.478-1.131,7.538,16.207c-.126.377.251,0,.126.5Zm-3.266-16.835,10.428-.628L599.626,224.6c-.754.251-1.382.377-2.01.628ZM601.133,236.4a3.895,3.895,0,1,1,3.895-3.895,3.914,3.914,0,0,1-3.895,3.895Zm6.407-8.292a8.734,8.734,0,0,0-4.146-3.141l2.01-14.448,31.409-1.633c.251.628.377,1.131.628,1.759Zm30.027-25.127L608.546,186.4l4.146-31.158c.251,0,.377,0,.377-.251l27.388,44.852a7.054,7.054,0,0,0-2.89,3.141Zm6.91,7.789a3.895,3.895,0,1,1,3.895-3.895,3.832,3.832,0,0,1-3.895,3.895Zm0,0" transform="translate(-550 -139.691)"/>
      </g>
    </g>
  </g>
</svg>
