<svg xmlns="http://www.w3.org/2000/svg" xmlns:xlink="http://www.w3.org/1999/xlink" width="59.88" height="46.473" viewBox="0 0 59.88 46.473">
  <defs>
    <style>
      .cls-1 {
        fill: #fff;
      }

      .cls-2 {
        clip-path: url(#clip-path);
      }
    </style>
    <clipPath id="clip-path">
      <rect id="矩形_871" data-name="矩形 871" class="cls-1" width="59.88" height="46.473"/>
    </clipPath>
  </defs>
  <g id="组_944" data-name="组 944" transform="translate(-488 -175)">
    <g id="组_943" data-name="组 943" transform="translate(488 175)">
      <g id="组_942" data-name="组 942" class="cls-2" transform="translate(0 0)">
        <path id="路径_2546" data-name="路径 2546" class="cls-1" d="M530.185,194.027H507.032v2.587h15.076V199.2h5.753l6.3,5.541h5.615a3.664,3.664,0,0,1,3.7-2.441,3.929,3.929,0,0,1,4.247,4.169,3.882,3.882,0,0,1-3.581,4.162l-.119.007a4.187,4.187,0,0,1-4.247-2.866H533.34l-6.849-5.85H513.753V204.1h5.211c-.018.844,0,3.877,0,3.877h2.606l4.52,5.84h3.288a3.335,3.335,0,0,1,3.15-2.3,3.649,3.649,0,0,1,4.075,3.616,3.562,3.562,0,0,1-3.486,4.156,4.778,4.778,0,0,1-4.15-2.606h-3.843c.083.135-4.794-5.827-4.794-5.827.065-.016-9.588,0-9.588,0a26.835,26.835,0,0,1,0,3.017h7.123l1.232,3.16a1.24,1.24,0,0,1-.274,1.438c-4.794,4.309-13.548,3.59-13.548,3.59a1.941,1.941,0,0,1-1.232-1.868,3.744,3.744,0,0,0-4.93-3.16c-4.466.891-4.033-1.647-3.882-1.918.182-2.535-1.462-2.392-1.462-2.392-2.327-.143-1.232-1.149-1.232-1.149,1.782-.863.412-1.149.412-1.149-2.866-.216-1.371-1.438-1.371-1.438,2.329-2.944-1.506-3.3-1.506-3.3-4.932-.07,0-4.883,0-4.883a6.4,6.4,0,0,0,1.37-5.891,14.244,14.244,0,0,1,1.235-9.486,16.174,16.174,0,0,1,13.009-7.178,17.086,17.086,0,0,1,12.191,4.023h4.52l7.392-3.654H535a3.535,3.535,0,0,1,3.7-2.866,4.023,4.023,0,0,1,4.248,3.784,4.072,4.072,0,0,1,0,.526,4.168,4.168,0,0,1-3.424,4.023A5.143,5.143,0,0,1,535,182.07h-4.651l-7.939,3.94h-10.57v2.731h10.273v2.73h7.939a3.926,3.926,0,0,1,4.3-3.489q.113.006.225.017a4.006,4.006,0,0,1,4.119,3.444,2.349,2.349,0,0,1,.023.555c-.011,2.012-.748,4.622-4.119,4.677a1.983,1.983,0,0,0-.408,0,4.348,4.348,0,0,1-4-2.648Zm0,0" transform="translate(-487.888 -175.695)"/>
      </g>
    </g>
  </g>
</svg>
