<svg xmlns="http://www.w3.org/2000/svg" width="32" height="42" viewBox="0 0 32 42">
  <defs>
    <style>
      .cls-1 {
        fill: #fff;
      }
    </style>
  </defs>
  <g id="组_527" data-name="组 527" transform="translate(-649 -131)">
    <path id="路径_1033" data-name="路径 1033" class="cls-1" d="M679.482,161.644a13.79,13.79,0,0,0-3.7-3.7,18.819,18.819,0,0,0-21.526,0,13.841,13.841,0,0,0-3.727,3.7A8.593,8.593,0,0,0,649,166.413a5.513,5.513,0,0,0,1.54,4.012c2.327,2.387,6.764,2.571,11.618,2.571h4.3c5.379.022,10.457.041,13.006-2.56a5.516,5.516,0,0,0,1.54-4.02,8.625,8.625,0,0,0-1.518-4.771Zm-2.29,6.457c-.653.673-1.961,1.135-3.9,1.373a55.231,55.231,0,0,1-6.823.217h-2.884c-4.3.017-9.165.037-10.775-1.608a2.194,2.194,0,0,1-.593-1.677c0-4.237,6.466-8.555,12.81-8.555a16.02,16.02,0,0,1,8.945,2.821c2.425,1.688,3.817,3.782,3.817,5.743a2.226,2.226,0,0,1-.595,1.686Zm-12.163-16.186a10.458,10.458,0,1,0-10.5-10.458,10.479,10.479,0,0,0,10.5,10.458Zm0-17.9a7.442,7.442,0,1,1-7.477,7.446,7.477,7.477,0,0,1,7.477-7.446Zm0,0" transform="translate(0)"/>
    <path id="路径_1034" data-name="路径 1034" class="cls-1" d="M881.872,370.94a4.942,4.942,0,0,0,7.965,0,.716.716,0,0,0-1.188-.794,3.519,3.519,0,0,1-5.585,0,.716.716,0,0,0-1.193.794Zm0,0" transform="translate(-220.856 -226.606)"/>
  </g>
</svg>
