<svg xmlns="http://www.w3.org/2000/svg" width="30" height="30" viewBox="0 0 30 30">
  <defs>
    <style>
      .cls-1 {
        fill: #fff;
      }
    </style>
  </defs>
  <g id="组_528" data-name="组 528" transform="translate(-553 -132)">
    <path id="路径_1035" data-name="路径 1035" class="cls-1" d="M752.608,276.085c.8,2.414,3.029,2.414,3.818,0a1.345,1.345,0,0,0,.58-.893c0-.348,0-.824-.336-.824a2.124,2.124,0,1,0-4.247.012c-.36,0-.383.476-.336.824a1.334,1.334,0,0,0,.522.882Zm0,0" transform="translate(-191.803 -135.196)"/>
    <path id="路径_1036" data-name="路径 1036" class="cls-1" d="M697.594,427.81v-.835a1.683,1.683,0,0,0,1.648-1.706l6.533-6.533a.453.453,0,0,0-.638-.638l-5.895,5.837v-5.559a2.6,2.6,0,0,0-2.077-2.518l-.905-.186-1.88,3.737-1.88-3.737-.905.186a2.6,2.6,0,0,0-2.112,2.518v6.893a1.671,1.671,0,0,0,1.636,1.682v.859Zm0,0" transform="translate(-131.76 -273.66)"/>
    <path id="路径_1037" data-name="路径 1037" class="cls-1" d="M553,149.407a4.782,4.782,0,0,0,1.285,3.282,4.268,4.268,0,0,0,3.1,1.36h.055a2.776,2.776,0,0,1-.373-1.381v-.638a2.646,2.646,0,0,1-2.193-2.646V136.642a2.62,2.62,0,0,1,2.511-2.634h21.088a2.618,2.618,0,0,1,2.533,2.634v12.765a2.621,2.621,0,0,1-2.533,2.681h-9.332l-.943,1a2.809,2.809,0,0,1-.373.986h10.648a4.268,4.268,0,0,0,3.1-1.359,4.782,4.782,0,0,0,1.285-3.282V136.642a4.783,4.783,0,0,0-1.285-3.282,4.268,4.268,0,0,0-3.1-1.36H557.386a4.268,4.268,0,0,0-3.1,1.36A4.782,4.782,0,0,0,553,136.642Zm0,0"/>
    <path id="路径_1038" data-name="路径 1038" class="cls-1" d="M559.176,767.473h-3.291A2.97,2.97,0,0,0,553,770.49v4.038h9.071V770.49a2.98,2.98,0,0,0-2.9-3.017Zm10.464,0h-3.291a2.97,2.97,0,0,0-2.885,3.017v4.038h9.071V770.49a2.982,2.982,0,0,0-2.9-3.052Zm10.464,0h-3.291a2.97,2.97,0,0,0-2.885,3.017v4.038H583V770.49a2.982,2.982,0,0,0-2.9-3.052Zm0,0" transform="translate(0 -612.528)"/>
    <path id="路径_1039" data-name="路径 1039" class="cls-1" d="M992.9,291.433h-8.251a.847.847,0,1,1,0-1.682H992.9a.847.847,0,0,1,0,1.682Zm0,4.433h-2.217a.847.847,0,0,1,0-1.683H992.9a.847.847,0,0,1,0,1.683Zm0,0" transform="translate(-415.234 -152.04)"/>
  </g>
</svg>
