<svg xmlns="http://www.w3.org/2000/svg" width="30" height="30" viewBox="0 0 30 30">
  <defs>
    <style>
      .cls-1 {
        fill: #fff;
      }
    </style>
  </defs>
  <g id="组_529" data-name="组 529" transform="translate(-641 -226)">
    <path id="路径_1040" data-name="路径 1040" class="cls-1" d="M664.492,249.923H647.508a6.563,6.563,0,0,1-6.508-6.6V232.607A6.566,6.566,0,0,1,647.508,226h16.985A6.564,6.564,0,0,1,671,232.607v10.708a6.561,6.561,0,0,1-6.508,6.607Zm-16.985-20.495a3.159,3.159,0,0,0-3.133,3.179v10.708a3.159,3.159,0,0,0,3.133,3.179h16.985a3.159,3.159,0,0,0,3.133-3.179V232.607a3.159,3.159,0,0,0-3.133-3.179Zm0,0"/>
    <path id="路径_1041" data-name="路径 1041" class="cls-1" d="M739.854,387.829h-7.913v-2.644h-3.355v2.644h-7.909a1.717,1.717,0,0,0,0,3.433h19.177a1.717,1.717,0,0,0,0-3.433ZM729.066,368h2.4v13.748h-2.4Zm-.8,13.752h-2.4v-5.288a.946.946,0,0,0-.932-.954h-3.2v-2.452h3.2a3.373,3.373,0,0,1,3.329,3.406Zm0,0" transform="translate(-74.264 -135.263)"/>
    <path id="路径_1042" data-name="路径 1042" class="cls-1" d="M736.395,432.861a1.208,1.208,0,0,1-.866-.36l-2.311-2.31a1.228,1.228,0,0,1,0-1.736l2.311-2.314a1.227,1.227,0,1,1,1.736,1.736l-1.444,1.445,1.444,1.445a1.228,1.228,0,0,1,0,1.736,1.24,1.24,0,0,1-.87.36Zm0,0" transform="translate(-87.459 -190.239)"/>
    <path id="路径_1043" data-name="路径 1043" class="cls-1" d="M1004.811,482.3h-2.452v-5.288a3.412,3.412,0,0,1,3.41-3.406h3.269v2.452h-3.269a.954.954,0,0,0-.954.954V482.3Zm0,0" transform="translate(-344.431 -235.778)"/>
    <path id="路径_1044" data-name="路径 1044" class="cls-1" d="M881.082,330.34a1.209,1.209,0,0,1-.866-.36,1.228,1.228,0,0,1,0-1.736l1.445-1.445-1.445-1.448a1.227,1.227,0,0,1,1.736-1.736l2.31,2.314a1.228,1.228,0,0,1,0,1.736l-2.31,2.31a1.242,1.242,0,0,1-.87.364Zm-4.027-6.7a1.208,1.208,0,0,1-.866-.36l-2.215-2.215-2.219,2.215a1.227,1.227,0,0,1-1.736-1.736l3.085-3.084a1.228,1.228,0,0,1,1.736,0l3.084,3.084a1.228,1.228,0,0,1-.87,2.1Zm0,0" transform="translate(-218.077 -87.691)"/>
  </g>
</svg>
