<svg xmlns="http://www.w3.org/2000/svg" xmlns:xlink="http://www.w3.org/1999/xlink" width="30" height="30" viewBox="0 0 30 30">
  <defs>
    <style>
      .cls-1 {
        fill: #fff;
      }

      .cls-2 {
        clip-path: url(#clip-path);
      }
    </style>
    <clipPath id="clip-path">
      <rect id="矩形_746" data-name="矩形 746" class="cls-1" width="30" height="30"/>
    </clipPath>
  </defs>
  <g id="组_532" data-name="组 532" transform="translate(-455.2 -312)">
    <g id="组_531" data-name="组 531" transform="translate(455.2 312)">
      <g id="组_530" data-name="组 530" class="cls-2" transform="translate(0 0)">
        <path id="路径_1045" data-name="路径 1045" class="cls-1" d="M456.121,319.136a1.288,1.288,0,0,1,2.356,1.041A9.193,9.193,0,0,0,460.44,330.2a9.315,9.315,0,0,0,10.078,1.953,1.283,1.283,0,1,1,1.047,2.343,11.749,11.749,0,0,1-12.826-2.474,11.617,11.617,0,0,1-2.618-12.888Zm21.726,9.113a1.288,1.288,0,0,1-2.356-1.042,9.162,9.162,0,0,0-12.041-11.977,1.2,1.2,0,0,1-1.7-.651,1.289,1.289,0,0,1,.654-1.692,11.725,11.725,0,0,1,15.444,15.362Zm0,0" transform="translate(-455.2 -311.967)"/>
        <path id="路径_1046" data-name="路径 1046" class="cls-1" d="M745.476,601.094a1.254,1.254,0,0,1,0-1.823,1.27,1.27,0,0,1,1.832,0l6.021,5.989a5.168,5.168,0,0,1,0,7.421,5.234,5.234,0,0,1-7.46,0l-6.02-5.988a1.254,1.254,0,0,1,0-1.823,1.269,1.269,0,0,1,1.832,0l6.02,5.988a2.539,2.539,0,0,0,3.665,0,2.508,2.508,0,0,0,0-3.645Zm0,0" transform="translate(-724.923 -584.291)"/>
      </g>
    </g>
    <path id="路径_1047" data-name="路径 1047" class="cls-1" d="M588.415,437.986a1.376,1.376,0,1,1,2.752,0,2.753,2.753,0,1,0,2.753-2.752,1.376,1.376,0,1,1,0-2.753,5.5,5.5,0,1,1-5.505,5.5Zm0,0" transform="translate(-126.593 -114.54)"/>
  </g>
</svg>
