<svg xmlns="http://www.w3.org/2000/svg" width="38" height="32" viewBox="0 0 38 32">
  <defs>
    <style>
      .cls-1 {
        fill: #fff;
      }
    </style>
  </defs>
  <g id="组_533" data-name="组 533" transform="translate(-575 -217)">
    <path id="路径_1048" data-name="路径 1048" class="cls-1" d="M775.955,480.726H763.883v3.018h12.072Zm-16.6-1.007a2.516,2.516,0,1,0,2.516,2.516,2.517,2.517,0,0,0-2.516-2.516Zm9.556,8.047H756.844v3.018h12.068Zm4.527-1a2.516,2.516,0,1,0,2.516,2.516,2.517,2.517,0,0,0-2.516-2.516Zm0,0" transform="translate(-172.897 -249.768)"/>
    <rect id="矩形_747" data-name="矩形 747" class="cls-1" width="29.946" height="3.018" transform="translate(579.025 224.994)"/>
    <path id="路径_1049" data-name="路径 1049" class="cls-1" d="M608.995,221v24H579V221h30m0-4H579a4,4,0,0,0-4,4v24a4,4,0,0,0,4,4h30a4,4,0,0,0,4-4V221a4.006,4.006,0,0,0-4.005-4Zm0,0" transform="translate(0 0)"/>
  </g>
</svg>
